<svg width="24" height="42" viewBox="0 0 24 42" fill="none" xmlns="http://www.w3.org/2000/svg">
<path d="M6.30906 38.8226C7.7153 38.8226 8.58585 38.0357 8.5691 36.663L8.23429 17.8627C8.23429 17.2769 8.4854 16.8416 9.00438 16.6071C11.2142 15.6361 12.1684 14.615 12.0512 11.6853L11.5825 1.40625C11.549 0.669643 11.1137 0.251116 10.4274 0.251116C9.77446 0.251116 9.37267 0.686384 9.37267 1.43973L9.48986 11.4342C9.48986 12.0201 9.12156 12.3884 8.5691 12.3884C7.9999 12.3884 7.59812 12.0368 7.59812 11.4844L7.43072 1.13839C7.41397 0.418527 6.99545 0 6.30906 0C5.62267 0 5.22089 0.418527 5.20415 1.13839L5.03673 11.4844C5.03673 12.0368 4.63495 12.3884 4.06576 12.3884C3.5133 12.3884 3.12826 12.0201 3.12826 11.4342L3.24545 1.43973C3.24545 0.686384 2.8604 0.251116 2.19076 0.251116C1.50437 0.251116 1.0691 0.669643 1.03562 1.40625L0.583613 11.6853C0.449684 14.615 1.40392 15.6361 3.61375 16.6071C4.13272 16.8416 4.38383 17.2769 4.38383 17.8627L4.06576 36.663C4.04902 38.0357 4.9028 38.8226 6.30906 38.8226ZM19.4006 24.2243L19.049 36.5793C18.9989 38.0357 19.886 38.8226 21.2756 38.8226C22.6986 38.8226 23.5691 38.1027 23.5691 36.7634V1.25558C23.5691 0.401786 22.9831 0 22.3804 0C21.7443 0 21.3259 0.334821 20.7901 1.12165C18.0947 4.90513 16.3203 11.9866 16.3203 18.683V19.5033C16.3203 20.6584 16.7387 21.5123 17.5759 22.0647L18.5636 22.7344C19.1661 23.1529 19.434 23.6217 19.4006 24.2243Z" fill="#262626"/>
</svg>
