<svg width="29" height="37" viewBox="0 0 29 37" fill="none" xmlns="http://www.w3.org/2000/svg">
<path d="M5.90408 36.3216H23.6831C27.1318 36.3216 28.8728 34.5637 28.8728 31.0816V5.68541C28.8728 2.18653 27.1485 0.428711 23.6831 0.428711H19.4309C18.8616 0.428711 18.4766 0.830497 18.4766 1.43318C18.4766 1.51688 18.4766 1.60059 18.4766 1.66755C18.4766 3.84388 17.0034 5.1497 14.7936 5.1497C12.5838 5.1497 11.1106 3.84388 11.1106 1.66755C11.1106 1.60059 11.1106 1.51688 11.1106 1.43318C11.1106 0.830497 10.7255 0.428711 10.1563 0.428711H5.90408C2.43868 0.428711 0.714355 2.18653 0.714355 5.68541V31.0816C0.714355 34.5637 2.45543 36.3216 5.90408 36.3216ZM8.44873 12.9008C7.84606 12.9008 7.41078 12.4488 7.41078 11.8461C7.41078 11.2769 7.84606 10.8249 8.44873 10.8249H21.1552C21.7412 10.8249 22.1764 11.2769 22.1764 11.8461C22.1764 12.4488 21.7412 12.9008 21.1552 12.9008H8.44873ZM8.44873 18.8439C7.84606 18.8439 7.41078 18.3919 7.41078 17.8227C7.41078 17.2367 7.84606 16.7847 8.44873 16.7847H14.4588C15.0615 16.7847 15.4968 17.2367 15.4968 17.8227C15.4968 18.3919 15.0615 18.8439 14.4588 18.8439H8.44873Z" fill="#262626"/>
</svg>
