<svg width="39" height="37" viewBox="0 0 39 37" fill="none" xmlns="http://www.w3.org/2000/svg">
<g clip-path="url(#clip0_61_349)">
<path d="M9.56101 1.70096C8.7407 3.5927 8.35566 5.48444 8.35566 7.32596C8.35566 13.4365 12.6748 18.4421 19.4047 18.4421C26.1347 18.4421 30.4539 13.4365 30.4539 7.32596C30.4539 5.48444 30.0689 3.5927 29.2653 1.70096C28.897 0.897391 27.9427 0.780204 27.3066 1.43311L23.5566 5.25007L20.359 1.11503C19.84 0.445382 18.9694 0.445382 18.4673 1.11503L15.2697 5.25007L11.503 1.43311C10.8668 0.780204 9.91257 0.897391 9.56101 1.70096ZM18.0654 35.4845C18.0654 36.2378 18.6514 36.7401 19.4047 36.7401C28.0599 36.7401 36.0119 31.3996 38.6236 23.8996C38.9919 22.8784 38.6067 22.2255 37.5186 22.2255C28.9639 22.2255 22.8031 27.2478 20.3256 33.5926L20.7609 34.1619V16.7512H18.0654V35.4845ZM15.772 29.0894C12.6246 25.0045 7.58556 22.2255 1.2407 22.2255C0.152528 22.2255 -0.232516 22.8784 0.135787 23.8996C2.37909 30.3952 8.60677 35.2835 15.9059 36.4386C15.8221 36.1541 15.772 35.8192 15.772 35.4845V29.0894Z" fill="#262626"/>
</g>
<defs>
<clipPath id="clip0_61_349">
<rect width="38.7593" height="36.3114" fill="white" transform="translate(0 0.428711)"/>
</clipPath>
</defs>
</svg>
