<svg width="80" height="80" viewBox="0 0 80 80" fill="none" xmlns="http://www.w3.org/2000/svg">
<path fill-rule="evenodd" clip-rule="evenodd" d="M17.1055 7.19574C14.2442 9.19646 11.6568 11.562 9.41065 14.2248C18.5893 13.3727 30.2504 14.7641 43.7888 21.5334C58.246 28.7618 69.8876 29.0062 77.9896 27.4434C77.2544 25.2176 76.3288 23.0784 75.2326 21.0448C65.958 22.023 54.068 20.7282 40.2112 13.8C31.412 9.40036 23.6555 7.58802 17.1055 7.19574ZM69.8148 13.3333C62.4906 5.14999 51.8468 0 40 0C36.521 0 33.1454 0.444214 29.9274 1.27896C34.2858 2.46817 38.9158 4.20797 43.7888 6.64454C53.934 11.7171 62.6928 13.3503 69.8148 13.3333ZM79.7218 35.2562C69.9338 37.189 56.4176 36.792 40.2112 28.6888C25.0599 21.1132 13.0009 21.2086 4.86781 23.016C4.448 23.1092 4.03808 23.2072 3.63806 23.3092C2.57324 25.625 1.72327 28.0602 1.11341 30.589C1.76477 30.415 2.43786 30.2496 3.13232 30.0952C12.9992 27.9026 26.9401 27.9978 43.7888 36.4222C58.9402 43.9978 70.9992 43.9024 79.1324 42.095C79.411 42.0332 79.6856 41.9692 79.9556 41.9032C79.9852 41.2726 80 40.638 80 40C80 38.395 79.9056 36.812 79.7218 35.2562ZM78.6496 50.3446C68.9566 52.0392 55.834 51.3888 40.2112 43.5776C25.0599 36.002 13.0009 36.0974 4.86781 37.9048C3.0625 38.3058 1.43848 38.7944 0.00586001 39.3102C0.001954 39.5396 0 39.7696 0 40C0 62.0914 17.9086 80 40 80C58.5142 80 74.0906 67.4218 78.6496 50.3446Z" fill="url(#paint0_linear_101_3218)"/>
<defs>
<linearGradient id="paint0_linear_101_3218" x1="72" y1="86.4" x2="-7.46643" y2="71.1862" gradientUnits="userSpaceOnUse">
<stop stop-color="#9EE78C"/>
<stop offset="1" stop-color="#2DA80E"/>
</linearGradient>
</defs>
</svg>
